HIERARCHY
ROOT Hips
{
  OFFSET 5.72205e-005 65.662 3.42586
  CHANNELS 6 Xposition Yposition Zposition Zrotation Xrotation Yrotation
  JOINT Chest
  {
    OFFSET 0 8.7983 -4.7612
    CHANNELS 3 Zrotation Xrotation Yrotation
    JOINT Chest2
    {
      OFFSET 0 8.0291 0.4195
      CHANNELS 3 Zrotation Xrotation Yrotation
      JOINT Chest3
      {
        OFFSET 0 9.9351 -2.2114
        CHANNELS 3 Zrotation Xrotation Yrotation
        JOINT Neck
        {
          OFFSET 0 22.3885 -0.4656
          CHANNELS 3 Zrotation Xrotation Yrotation
          JOINT Head
          {
            OFFSET -0.0001 12.643 3.4389
            CHANNELS 3 Zrotation Xrotation Yrotation
            End Site
            {
              OFFSET 0.0001 17.6655 0.5274
            }
          }
        }
        JOINT LeftCollar
        {
          OFFSET 2.2603 21.606 7.4023
          CHANNELS 3 Zrotation Xrotation Yrotation
          JOINT LeftShoulder
          {
            OFFSET 13.5163 -1.1332 -5.0146
            CHANNELS 3 Zrotation Xrotation Yrotation
            JOINT LeftElbow
            {
              OFFSET -0.0995 -28.05 -0.2431
              CHANNELS 3 Zrotation Xrotation Yrotation
              JOINT LeftWrist
              {
                OFFSET 0.0679 -23.3996 -0.1402
                CHANNELS 3 Zrotation Xrotation Yrotation
                JOINT LeftFinger1
                {
                  OFFSET 0.7932 -9.069 2.5189
                  CHANNELS 3 Zrotation Xrotation Yrotation
                  JOINT LeftFinger11
                  {
                    OFFSET -0.8272 -3.3923 0.5977
                    CHANNELS 3 Zrotation Xrotation Yrotation
                    JOINT LeftFinger12
                    {
                      OFFSET -0.5649 -2.3158 0.4082
                      CHANNELS 3 Zrotation Xrotation Yrotation
                      End Site
                      {
                        OFFSET -0.4919 -1.6479 0.2673
                      }
                    }
                  }
                }
                JOINT LeftFinger2
                {
                  OFFSET 0.9159 -9.2044 0.2193
                  CHANNELS 3 Zrotation Xrotation Yrotation
                  JOINT LeftFinger21
                  {
                    OFFSET 0.0117 -4.1944 -0.0248
                    CHANNELS 3 Zrotation Xrotation Yrotation
                    JOINT LeftFinger22
                    {
                      OFFSET 0.0071 -2.3249 -0.0142
                      CHANNELS 3 Zrotation Xrotation Yrotation
                      End Site
                      {
                        OFFSET -0.1475 -2.0882 0.0028
                      }
                    }
                  }
                }
                JOINT LeftFinger3
                {
                  OFFSET 0.6113 -8.7231 -2.0637
                  CHANNELS 3 Zrotation Xrotation Yrotation
                  JOINT LeftFinger31
                  {
                    OFFSET -0.1927 -3.8059 -0.2383
                    CHANNELS 3 Zrotation Xrotation Yrotation
                    JOINT LeftFinger32
                    {
                      OFFSET -0.1091 -2.1688 -0.1362
                      CHANNELS 3 Zrotation Xrotation Yrotation
                      End Site
                      {
                        OFFSET -0.2358 -1.9176 -0.0906
                      }
                    }
                  }
                }
                JOINT LeftFinger4
                {
                  OFFSET -0.6151 -8.0947 -3.5641
                  CHANNELS 3 Zrotation Xrotation Yrotation
                  JOINT LeftFinger41
                  {
                    OFFSET -0.4882 -2.341 -0.6462
                    CHANNELS 3 Zrotation Xrotation Yrotation
                    JOINT LeftFinger42
                    {
                      OFFSET -0.3575 -1.7167 -0.4742
                      CHANNELS 3 Zrotation Xrotation Yrotation
                      End Site
                      {
                        OFFSET -0.4187 -1.5237 -0.3496
                      }
                    }
                  }
                }
                JOINT LeftFinger0
                {
                  OFFSET -1.42 -1.8761 1.4223
                  CHANNELS 3 Zrotation Xrotation Yrotation
                  JOINT LeftFinger01
                  {
                    OFFSET -1.1471 -3.4929 2.6334
                    CHANNELS 3 Zrotation Xrotation Yrotation
                    JOINT LeftFinger02
                    {
                      OFFSET -0.823 -2.3 1.6571
                      CHANNELS 3 Zrotation Xrotation Yrotation
                      End Site
                      {
                        OFFSET -0.5822 -1.6914 1.1582
                      }
                    }
                  }
                }
              }
            }
          }
        }
        JOINT RightCollar
        {
          OFFSET -2.2603 21.606 7.4023
          CHANNELS 3 Zrotation Xrotation Yrotation
          JOINT RightShoulder
          {
            OFFSET -13.5187 -1.1334 -5.0155
            CHANNELS 3 Zrotation Xrotation Yrotation
            JOINT RightElbow
            {
              OFFSET 0.0994 -28.0499 -0.2431
              CHANNELS 3 Zrotation Xrotation Yrotation
              JOINT RightWrist
              {
                OFFSET -0.0679 -23.3996 -0.1402
                CHANNELS 3 Zrotation Xrotation Yrotation
                JOINT RightFinger1
                {
                  OFFSET -0.7932 -9.0691 2.5189
                  CHANNELS 3 Zrotation Xrotation Yrotation
                  JOINT RightFinger11
                  {
                    OFFSET 0.8272 -3.3923 0.5977
                    CHANNELS 3 Zrotation Xrotation Yrotation
                    JOINT RightFinger12
                    {
                      OFFSET 0.565 -2.3158 0.4082
                      CHANNELS 3 Zrotation Xrotation Yrotation
                      End Site
                      {
                        OFFSET 0.4919 -1.6479 0.2673
                      }
                    }
                  }
                }
                JOINT RightFinger2
                {
                  OFFSET -0.916 -9.2044 0.2193
                  CHANNELS 3 Zrotation Xrotation Yrotation
                  JOINT RightFinger21
                  {
                    OFFSET -0.0117 -4.1944 -0.0248
                    CHANNELS 3 Zrotation Xrotation Yrotation
                    JOINT RightFinger22
                    {
                      OFFSET -0.0071 -2.3249 -0.0142
                      CHANNELS 3 Zrotation Xrotation Yrotation
                      End Site
                      {
                        OFFSET 0.1475 -2.0882 0.0028
                      }
                    }
                  }
                }
                JOINT RightFinger3
                {
                  OFFSET -0.6113 -8.7231 -2.0637
                  CHANNELS 3 Zrotation Xrotation Yrotation
                  JOINT RightFinger31
                  {
                    OFFSET 0.1927 -3.8059 -0.2383
                    CHANNELS 3 Zrotation Xrotation Yrotation
                    JOINT RightFinger32
                    {
                      OFFSET 0.1091 -2.1688 -0.1362
                      CHANNELS 3 Zrotation Xrotation Yrotation
                      End Site
                      {
                        OFFSET 0.2358 -1.9176 -0.0906
                      }
                    }
                  }
                }
                JOINT RightFinger4
                {
                  OFFSET 0.6151 -8.0947 -3.564
                  CHANNELS 3 Zrotation Xrotation Yrotation
                  JOINT RightFinger41
                  {
                    OFFSET 0.4882 -2.341 -0.6462
                    CHANNELS 3 Zrotation Xrotation Yrotation
                    JOINT RightFinger42
                    {
                      OFFSET 0.3574 -1.7166 -0.4742
                      CHANNELS 3 Zrotation Xrotation Yrotation
                      End Site
                      {
                        OFFSET 0.4187 -1.5237 -0.3496
                      }
                    }
                  }
                }
                JOINT RightFinger0
                {
                  OFFSET 1.4199 -1.8761 1.4221
                  CHANNELS 3 Zrotation Xrotation Yrotation
                  JOINT RightFinger01
                  {
                    OFFSET 1.1472 -3.4929 2.6336
                    CHANNELS 3 Zrotation Xrotation Yrotation
                    JOINT RightFinger02
                    {
                      OFFSET 0.8229 -2.3 1.6571
                      CHANNELS 3 Zrotation Xrotation Yrotation
                      End Site
                      {
                        OFFSET 0.5822 -1.6914 1.1582
                      }
                    }
                  }
                }
              }
            }
          }
        }
      }
    }
  }
  JOINT RightHip
  {
    OFFSET -9.412 3.9771 -0.7758
    CHANNELS 3 Zrotation Xrotation Yrotation
    JOINT RightKnee
    {
      OFFSET -0.7531 -40.938 0
      CHANNELS 3 Zrotation Xrotation Yrotation
      JOINT RightAnkle
      {
        OFFSET 0 -40.1986 0
        CHANNELS 3 Zrotation Xrotation Yrotation
        JOINT RightToe
        {
          OFFSET 0 -4.4182 9.239
          CHANNELS 3 Zrotation Xrotation Yrotation
          End Site
          {
            OFFSET 0 0 6.1981
          }
        }
      }
    }
  }
  JOINT LeftHip
  {
    OFFSET 9.4119 3.9773 -0.7758
    CHANNELS 3 Zrotation Xrotation Yrotation
    JOINT LeftKnee
    {
      OFFSET 0.7532 -40.9383 0
      CHANNELS 3 Zrotation Xrotation Yrotation
      JOINT LeftAnkle
      {
        OFFSET 0 -40.1986 0
        CHANNELS 3 Zrotation Xrotation Yrotation
        JOINT LeftToe
        {
          OFFSET 0 -4.4182 9.239
          CHANNELS 3 Zrotation Xrotation Yrotation
          End Site
          {
            OFFSET 0 0 6.1981
          }
        }
      }
    }
  }
}
MOTION
Frames:	4
Frame Time:	0.0333333
5.72205e-005 65.662 3.42586 0 0 -0 0 0 -0 0 0 -0 0 0 -0 0 0 -0 0 0 -0 0 0 -12.5014 88.1196 14.2451 10.6914 -0.00160068 -0.00239207 0.000740045 -8.4365e-005 7.00714e-005 -9.52055e-007 9.93923e-017 -1.98785e-016 -1.59028e-015 9.93923e-017 -5.96354e-016 -1.59028e-015 -9.93923e-017 -5.96354e-016 -1.59028e-015 9.93923e-017 -1.98785e-016 -1.59028e-015 -0.0128176 0.00232552 8.52707e-005 9.93923e-017 5.96354e-016 -0 9.93923e-017 -1.98785e-016 -1.59028e-015 -0.0160551 0.00299681 0.000857156 -2.48481e-016 0 3.18055e-015 9.93923e-017 -1.98785e-016 -1.59028e-015 -0.0125865 0.0031206 0.00282719 0 1.98785e-016 -0 9.93923e-017 -1.98785e-016 -1.59028e-015 9.93923e-017 -5.96354e-016 -1.59028e-015 -9.93923e-017 -5.96354e-016 -1.59028e-015 -0.865644 0.16582 7.03859 -88.0329 10.2057 -10.5567 0.0015593 -0.00248883 -0.000788628 7.87605e-005 4.10553e-005 1.24965e-005 -3.97569e-016 -7.95139e-016 3.18055e-015 -1.98785e-016 -3.97569e-016 3.18055e-015 -1.98785e-016 0 3.18055e-015 -3.97569e-016 -7.95139e-016 3.18055e-015 0.0129473 0.00231697 -8.70038e-005 9.93923e-017 -7.95139e-016 1.59028e-015 -3.97569e-016 -7.95139e-016 3.18055e-015 0.0163314 0.00303369 -0.000872333 3.97569e-016 7.95139e-016 -3.18055e-015 -3.97569e-016 -7.95139e-016 3.18055e-015 0.0145763 0.00367772 -0.00326275 9.93923e-017 -3.97569e-016 -0 -3.97569e-016 -7.95139e-016 3.18055e-015 -1.98785e-016 -3.97569e-016 3.18055e-015 -1.98785e-016 0 3.18055e-015 3.42482 1.32465 -0.0626183 0.000117508 0.717283 0.000978199 -3.4257 -2.04197 -0.0604716 6.47761e-025 0 -0 -3.42483 1.34017 0.0627307 -0.000193936 0.682302 -0.0013703 3.42574 -2.02253 0.0595886 -8.45714e-024 0 -7.40531e-025 
-1.7669e-005 3.07056 11.958 1.56079e-007 -82.0004 1.84409e-007 -0.0186313 -3.0672 -0.153011 -0.0455774 -6.13435 -0.307685 -0.0455774 -6.13434 -0.307685 -7.33027 30.1255 -1.30713 16.1593 -8.01045 6.31185 -15.833 14.1706 -8.67641 38.927 -43.9409 35.1103 -13.6038 2.6323 -35.2595 -44.6027 14.6416 25.0726 5.28104e-006 3.39978e-006 -6.57189e-006 9.54166e-015 -1.59028e-015 4.77083e-015 3.18055e-015 3.18055e-015 1.59028e-015 5.28104e-006 3.39978e-006 -6.57189e-006 -0.0128416 0.00233716 9.45752e-005 0 0 -1.59028e-015 5.28104e-006 3.39978e-006 -6.57189e-006 -0.0160578 0.00300655 0.000863026 -6.36111e-015 1.74931e-014 1.59028e-015 5.28104e-006 3.39978e-006 -6.57189e-006 -0.0125773 0.00312023 0.00282724 -1.27222e-014 -3.18055e-015 1.59028e-015 5.28104e-006 3.39978e-006 -6.57189e-006 9.54166e-015 -1.59028e-015 4.77083e-015 3.18055e-015 3.18055e-015 1.59028e-015 14.9496 14.3918 3.42642 -34.1546 -45.8335 -29.2454 12.9231 2.4857 35.4502 44.97 15.2842 -23.9726 6.95141e-007 1.20412e-006 1.36717e-006 -3.18055e-015 -3.18055e-015 -3.18055e-015 -6.9514e-007 -1.20412e-006 -1.36717e-006 6.95141e-007 1.20412e-006 1.36717e-006 0.0129526 0.00232949 -8.64341e-005 6.36111e-015 3.18055e-015 -3.18055e-015 6.95141e-007 1.20412e-006 1.36717e-006 0.0163241 0.00304001 -0.000874915 -2.20695e-031 1.59028e-015 7.95139e-015 6.95141e-007 1.20412e-006 1.36717e-006 0.0145638 0.00368331 -0.00325874 6.09614e-006 2.61079e-006 2.96328e-006 6.95141e-007 1.20412e-006 1.36717e-006 -3.18055e-015 -3.18055e-015 -3.18055e-015 -6.9514e-007 -1.20412e-006 -1.36717e-006 -16.8181 -14.7152 -50.7619 -2.09218 51.066 0.837481 -3.85727 11.5996 -0.0402682 4.34591e-006 2.73766e-006 1.09784e-006 16.8145 -14.7173 50.7577 2.08895 51.0669 -0.839695 3.85504 11.5992 0.0368602 5.78202e-006 -1.60841e-006 -8.31909e-007 
0.000485026 3.19662 11.9565 3.80387e-007 -82.0004 3.50218e-007 -0.018021 -3.18888 -0.153063 -0.0446938 -6.37769 -0.307848 -0.0446939 -6.37772 -0.307849 -7.33027 30.1255 -1.30713 16.0239 -8.35809 6.2855 -15.6437 14.8179 -8.13787 38.5131 -44.1552 34.8151 -13.7931 2.66498 -35.251 -44.6026 14.6422 25.072 3.87561e-006 1.18481e-007 5.72564e-007 -3.18055e-015 1.59028e-015 -4.77083e-015 -3.87561e-006 -1.18481e-007 -5.72564e-007 3.87561e-006 1.18481e-007 5.72564e-007 -0.0128185 0.00231843 8.07074e-005 -3.18055e-015 4.77083e-015 -0 3.87561e-006 1.18481e-007 5.72564e-007 -0.0160746 0.00300534 0.000856191 -8.8828e-008 8.89075e-007 -1.55073e-006 3.87561e-006 1.18481e-007 5.72564e-007 -0.0126086 0.00313184 0.00282575 -6.36111e-015 -1.59028e-015 -1.59028e-015 3.87561e-006 1.18481e-007 5.72564e-007 -3.18055e-015 1.59028e-015 -4.77083e-015 -3.87561e-006 -1.18481e-007 -5.72564e-007 14.7452 15.0371 2.87819 -33.687 -46.0201 -28.8925 13.1176 2.51905 35.443 44.9699 15.2846 -23.9722 1.49275e-006 5.24515e-007 1.1413e-006 -3.97252e-031 4.77083e-015 4.77083e-015 4.3243e-006 8.48869e-006 2.81664e-007 1.49275e-006 5.24515e-007 1.1413e-006 0.0129677 0.00231575 -8.98143e-005 3.88392e-006 1.19299e-006 3.62099e-006 1.49275e-006 5.24515e-007 1.1413e-006 0.0163345 0.00302831 -0.000875237 1.56896e-006 1.39359e-006 2.71252e-006 1.49275e-006 5.24515e-007 1.1413e-006 0.0146023 0.00367853 -0.00326641 5.162e-007 7.42446e-006 -1.76755e-006 1.49275e-006 5.24515e-007 1.1413e-006 -3.97252e-031 4.77083e-015 4.77083e-015 4.3243e-006 8.48869e-006 2.81664e-007 -16.5195 -14.7155 -50.0371 -2.09161 51.0569 0.844326 -3.34398 11.5992 -0.657321 6.36111e-015 3.18055e-015 1.27222e-014 16.6198 -14.6219 50.2947 2.08839 51.0549 -0.844023 3.52735 11.5811 0.392039 -2.60314e-006 2.36434e-006 7.10522e-007 
0.000967579 3.32267 11.9549 -1.36555e-008 -82.0004 -5.20072e-008 -0.0174094 -3.31074 -0.153111 -0.0438081 -6.62145 -0.308005 -0.0438082 -6.62145 -0.308005 -7.33027 30.1255 -1.30713 15.8883 -8.70571 6.2583 -15.46 15.4676 -7.59938 38.0956 -44.3683 34.5162 -13.9819 2.69765 -35.2422 -44.6024 14.6427 25.0714 9.54166e-015 0 -3.18055e-015 6.36111e-015 0 -4.77083e-015 -1.27222e-014 0 -1.59028e-015 9.54166e-015 0 -3.18055e-015 -0.0128095 0.00232484 8.17454e-005 8.82781e-032 -3.18055e-015 1.59028e-015 9.54166e-015 0 -3.18055e-015 -0.016069 0.00299748 0.000855578 3.18055e-015 -4.77083e-015 -4.77083e-015 9.54166e-015 0 -3.18055e-015 -0.0125763 0.00311785 0.00282033 3.18055e-015 -1.59028e-015 -0 9.54166e-015 0 -3.18055e-015 6.36111e-015 0 -4.77083e-015 -1.27222e-014 0 -1.59028e-015 14.5464 15.6848 2.33012 -33.2162 -46.2045 -28.5362 13.3124 2.55237 35.4356 44.9698 15.2849 -23.9719 2.90276e-006 6.58959e-007 7.14316e-007 9.54166e-015 1.27222e-014 1.59028e-015 3.81751e-006 1.3723e-006 2.04732e-006 2.90276e-006 6.58959e-007 7.14316e-007 0.0129286 0.00232688 -8.09633e-005 -3.18055e-015 1.59028e-015 -1.59028e-015 2.90276e-006 6.58959e-007 7.14316e-007 0.0163052 0.00302213 -0.000874317 4.88606e-006 1.34914e-005 3.30987e-006 2.90276e-006 6.58959e-007 7.14316e-007 0.0145709 0.00368082 -0.00326046 1.49138e-007 1.93166e-006 3.14333e-006 2.90276e-006 6.58959e-007 7.14316e-007 9.54166e-015 1.27222e-014 1.59028e-015 3.81751e-006 1.3723e-006 2.04732e-006 -16.2207 -14.7123 -49.312 -2.09125 51.0479 0.851331 -2.83032 11.5934 -1.27484 -1.40015e-005 2.42964e-006 -5.80004e-007 16.4261 -14.5248 49.8323 2.08756 51.0428 -0.848247 3.19976 11.5611 0.747116 2.0599e-006 -2.47076e-006 -1.39918e-006 
